***************************************************************

[IMG]http://www.hotimg.org/images/67363952943939111394.png[/IMG]

***************************************************************

[IMG]http://www.hotimg.org/images/88880059413038093609.jpg[/IMG]

***************************************************************

FILM TITLE: Real Steel (2011)

***************************************************************

Genre:  Action | Drama | Sci-Fi   

Rated PG-13 for some violence, intense action and brief language

Release:  25 November 2011 (Sweden)

Director: Shawn Levy

Writer: John Gatins (screenplay), Dan Gilroy (story)

Stars: Hugh Jackman, Evangeline Lilly and Dakota Goyo 

Country:  USA | India

Language:  English

Plot:
Set in the near future, where robot boxing is a top sport, a struggling 
promoter feels he's found a champion in a discarded robot. During his 
hopeful rise to the top, he discovers he has an 11-year-old son who 
wants to know his father.

IMDB Rating: 7.2/10 from 68,787 users   Metascore: 56/100
 
http://www.imdb.com/title/tt0433035/

****************************************************************

[URL=http://www.hotimg.org/viewer.php?file=33665570854482879932.png][IMG]http://www.hotimg.org/images/33665570854482879932_thumb.png[/IMG][/URL]
[URL=http://www.hotimg.org/viewer.php?file=95324999489858040995.png][IMG]http://www.hotimg.org/images/95324999489858040995_thumb.png[/IMG][/URL]
[URL=http://www.hotimg.org/viewer.php?file=80452212462745350658.png][IMG]http://www.hotimg.org/images/80452212462745350658_thumb.png[/IMG][/URL]
[URL=http://www.hotimg.org/viewer.php?file=85640926542897317548.png][IMG]http://www.hotimg.org/images/85640926542897317548_thumb.png[/IMG][/URL]
[URL=http://www.hotimg.org/viewer.php?file=99731840960450511212.png][IMG]http://www.hotimg.org/images/99731840960450511212_thumb.png[/IMG][/URL]

****************************************************************

General
Unique ID                        : 170250346073429729063580412294372875611 (0x80150621E2008DA280C0EB28B1995D5B)
Complete name                    : Real Steel 2011 720p BDRip x264 ac3 subs (mkv) [GREYSHADOW].mkv
Format                           : Matroska
Format version                   : Version 2
File size                        : 3.76 GiB
Duration                         : 2h 6mn
Overall bit rate                 : 4241 Kbps
Encoded date                     : UTC 2012-01-31 19:08:42
Writing application              : mkvmerge v5.2.1 ('A Far Off Place') built on Jan  2 2012 23:21:10
Writing library                  : libebml v1.2.3 + libmatroska v1.3.0

Video
ID                               : 1
Format                           : AVC
Format/Info                      : Advanced Video Codec
Format profile                   : High@L4.1
Format settings, CABAC           : Yes
Format settings, ReFrames        : 12 frames
Muxing mode                      : Header stripping
Codec ID                         : V_MPEG4/ISO/AVC
Duration                         : 2h 6mn
Bit rate                         : 3600 Kbps
Width                            : 1280 pixels
Height                           : 544 pixels
Display aspect ratio             : 2.35:1
Frame rate                       : 23.976 fps
Color space                      : YUV
Chroma subsampling               : 4:2:0
Bit depth                        : 8 bits
Scan type                        : Progressive
Bits/(Pixel*Frame)               : 0.216
Stream size                      : 3.12 GiB (83%)
Title                            : AVC MPEG4 Video
Writing library                  : x264 core 120 r2146 bcd41db
Language                         : English
Color primaries                  : BT.709-5, BT.1361, IEC 61966-2-4, SMPTE RP177
Transfer characteristics         : BT.709-5, BT.1361
Matrix coefficients              : BT.709-5, BT.1361, IEC 61966-2-4 709, SMPTE RP177

Audio
ID                               : 2
Format                           : AC-3
Format/Info                      : Audio Coding 3
Mode extension                   : CM (complete main)
Muxing mode                      : Header stripping
Codec ID                         : A_AC3
Duration                         : 2h 6mn
Bit rate mode                    : Constant
Bit rate                         : 640 Kbps
Channel(s)                       : 6 channels
Channel positions                : Front: L C R, Side: L R, LFE
Sampling rate                    : 48.0 KHz
Bit depth                        : 16 bits
Compression mode                 : Lossy
Stream size                      : 581 MiB (15%)
Title                            : English AC3 5.1 640kbps Audio
Language                         : English

Text #1
ID                               : 3
Format                           : UTF-8
Codec ID                         : S_TEXT/UTF8
Codec ID/Info                    : UTF-8 Plain Text
Title                            : English (Hard Of Hearing) Sub sup to srt
Language                         : English

Text #2
ID                               : 4
Format                           : UTF-8
Codec ID                         : S_TEXT/UTF8
Codec ID/Info                    : UTF-8 Plain Text
Title                            : French Sub sup to srt
Language                         : French

Text #3
ID                               : 5
Format                           : UTF-8
Codec ID                         : S_TEXT/UTF8
Codec ID/Info                    : UTF-8 Plain Text
Title                            : Spanish Sub sup to srt
Language                         : Spanish

****************************************************************

Video Source: Real Steel 2011 BluRay 1080p AVC DTS-HD MA5.1-CHDBits (46.12GB)

Thanks: CHP (chdbits.org)

****************************************************************

I provide a small sample, so please download this to check your 
compatibility first if you are unsure.

****************************************************************

Hash: 46AB87AEF3288F151FE7AD9720F102D69F2A5E8C

Trackers:
.udp://tracker.1337x.org:80/announce

****************************************************************